<?xml version="1.0"?><svg width="596" height="365" xmlns="http://www.w3.org/2000/svg" xmlns:xlink="http://www.w3.org/1999/xlink">
 <defs>
  <linearGradient id="linearGradient4098">
   <stop stop-color="#ffb142" offset="0" id="stop4100"/>
   <stop stop-color="#c87600" offset="1" id="stop4104"/>
  </linearGradient>
  <linearGradient xlink:href="#linearGradient4098" id="linearGradient3211" y2="0.634575" x2="0.666877" y1="0.634575" x1="0.440936"/>
  <linearGradient xlink:href="#linearGradient4098" id="linearGradient3327" y2="Infinity" x2="-0.736838" y1="Infinity" x1="-0.736836"/>
  <linearGradient xlink:href="#linearGradient4098" id="linearGradient3329" y2="Infinity" x2="-0.140348" y1="Infinity" x1="-0.140346"/>
  <linearGradient xlink:href="#linearGradient4098" id="linearGradient3331" y2="Infinity" x2="-1.350873" y1="Infinity" x1="-1.350871"/>
  <linearGradient xlink:href="#linearGradient4098" id="linearGradient3333" y2="Infinity" x2="1.964916" y1="Infinity" x1="1.964918"/>
  <linearGradient xlink:href="#linearGradient4098" id="linearGradient3335" y2="Infinity" x2="2.561407" y1="Infinity" x1="2.561409"/>
  <linearGradient xlink:href="#linearGradient4098" id="linearGradient3337" y2="Infinity" x2="1.350881" y1="Infinity" x1="1.350883"/>
 </defs>
 <g>
  <title>Layer 1</title>
  <g externalResourcesRequired="false" id="layer1">
   <path fill="url(#linearGradient3337)" fill-rule="nonzero" stroke="#000000" stroke-width="2.868705" stroke-linecap="round" stroke-linejoin="round" stroke-miterlimit="4" id="path3226" d="m293.003906,341.652191a14.25,23.023811 0 1 1 -28.5,0a14.25,23.023811 0 1 1 28.5,0z"/>
   <path fill="url(#linearGradient3335)" fill-rule="nonzero" stroke="#000000" stroke-width="2.868705" stroke-linecap="round" stroke-linejoin="round" stroke-miterlimit="4" id="path3228" d="m258.503906,341.652191a14.25,23.023811 0 1 1 -28.5,0a14.25,23.023811 0 1 1 28.5,0z"/>
   <path fill="url(#linearGradient3333)" fill-rule="nonzero" stroke="#000000" stroke-width="2.868705" stroke-linecap="round" stroke-linejoin="round" stroke-miterlimit="4" id="path3230" d="m275.503906,341.652191a14.25,23.023811 0 1 1 -28.5,0a14.25,23.023811 0 1 1 28.5,0z"/>
   <path fill="url(#linearGradient3331)" fill-rule="nonzero" stroke="#000000" stroke-width="2.868705" stroke-linecap="round" stroke-linejoin="round" stroke-miterlimit="4" id="path3224" d="m370.003906,341.652191a14.25,23.023811 0 1 1 -28.5,0a14.25,23.023811 0 1 1 28.5,0z"/>
   <path fill="url(#linearGradient3329)" fill-rule="nonzero" stroke="#000000" stroke-width="2.868705" stroke-linecap="round" stroke-linejoin="round" stroke-miterlimit="4" id="path3220" d="m335.503906,341.652191a14.25,23.023811 0 1 1 -28.5,0a14.25,23.023811 0 1 1 28.5,0z"/>
   <path fill="url(#linearGradient3327)" fill-rule="nonzero" stroke="#000000" stroke-width="2.868705" stroke-linecap="round" stroke-linejoin="round" stroke-miterlimit="4" id="path3222" d="m352.503906,341.652191a14.25,23.023811 0 1 1 -28.5,0a14.25,23.023811 0 1 1 28.5,0z"/>
   <path fill="#000000" fill-opacity="0.313725" fill-rule="nonzero" stroke-width="6.428549" stroke-linecap="round" stroke-miterlimit="4" id="path3250" d="m244.253906,318.625031c-5.806396,0 -10.780304,5.630341 -13,13.6875c18.971085,5.07428 39.814178,8.034149 61.71875,8.4375c-0.29837,-12.284821 -6.542877,-22.125 -14.21875,-22.125c-3.300903,0 -6.333282,1.827484 -8.75,4.875c-2.416718,-3.047516 -5.449097,-4.875 -8.75,-4.875c-3.18576,0 -6.126053,1.704834 -8.5,4.5625c-2.373947,-2.857666 -5.314224,-4.5625 -8.5,-4.5625zm77,0c-7.656189,0 -13.890686,9.790466 -14.21875,22.03125c21.880585,-0.704346 42.615845,-3.983551 61.4375,-9.34375c-2.347198,-7.515625 -7.157104,-12.6875 -12.71875,-12.6875c-3.300903,0 -6.333282,1.827484 -8.75,4.875c-2.416718,-3.047516 -5.449097,-4.875 -8.75,-4.875c-3.18576,0 -6.126068,1.704834 -8.5,4.5625c-2.373962,-2.857666 -5.314209,-4.5625 -8.5,-4.5625z"/>
   <path fill="#784421" fill-rule="nonzero" stroke="#000000" stroke-width="5" stroke-linecap="round" stroke-miterlimit="4" id="path2385" d="m463.662292,165.564194a165.564163,165.564163 0 1 1 -331.128342,0a165.564163,165.564163 0 1 1 331.128342,0z"/>
   <path fill="#ffffff" fill-rule="nonzero" stroke="#000000" stroke-width="4.411765" stroke-linecap="round" stroke-linejoin="round" stroke-miterlimit="4" id="path3167" d="m379.935913,248.346252c-26.5,-4.923599 -2.247375,21.631134 -6.31076,31.232697c-16.063354,-7.898407 -9.942719,18.250031 -17.206604,25.513916c-13.763885,-0.736084 -15.912323,13.14325 -25.513916,17.206604c-11.601593,-6.436615 -20.156281,6.31076 -31.232697,6.31076c-11.076447,0 -17.631165,-12.247406 -31.232727,-6.31076c-9.601593,-4.063354 -11.750061,-17.442688 -25.513931,-17.206604c-7.263901,-7.263885 -6.143234,-34.912323 -17.206619,-25.513916c-4.06337,-9.601563 14.68924,-38.156235 -6.31073,-31.232697c0,-11.076416 22.247375,-31.631149 6.31073,-31.232712c4.06337,-9.601593 24.442734,-16.750015 17.206619,-25.513901c14.527756,-14.527832 34.593765,-23.517365 56.746658,-23.517365c22.152832,0 42.218872,8.989532 56.746613,23.517365c-10.736115,5.26387 13.14325,15.912308 17.206604,25.513901c-17.936615,-0.898422 6.31076,20.156296 6.31076,31.232712z"/>
   <path transform="rotate(-51.853 473.115 193.742)" fill="#784421" fill-rule="evenodd" stroke="#000000" stroke-width="5" stroke-miterlimit="4" id="path3800" d="m463.2836,112.0821c-65.298431,17.300056 19.223145,94.142708 -51.329651,161.191765c-13.040833,12.39325 78.54068,2.090759 110.91745,-66.585007c31.485657,-66.785767 1.536804,-107.539101 -59.587799,-94.606758z"/>
   <path fill="#784421" fill-rule="evenodd" stroke="#000000" stroke-width="5" stroke-linecap="round" stroke-linejoin="round" stroke-miterlimit="4" id="path2413" d="m413.507874,119.497566c13.388672,-4.609009 27.221039,7.583862 29.865173,14.179939c-13.512299,-3.452271 -19.719635,-4.425781 -23.218384,-1.380707c1.506744,3.371429 17.408234,6.741913 22.337341,28.871155c-12.428772,-8.616638 -22.303558,-18.575592 -26.27243,-14.483154c2.881592,5.033875 6.199524,14.497437 3.963593,23.880798c-7.14151,-9.424438 -14.438751,-19.378479 -21.141541,-19.647827"/>
   <path fill="#ffffff" fill-rule="nonzero" stroke="#000000" stroke-width="5" stroke-linecap="round" stroke-miterlimit="4" id="path2387" d="m252.147156,37.76405c-31.234467,0 -56.603348,29.331387 -56.603348,65.471706c0,36.140297 25.368881,65.471687 56.603348,65.471687c18.355652,0 34.644379,-10.140869 44.984772,-25.829437c10.339661,15.699921 26.663879,25.829437 45.027313,25.829437c31.234467,0 56.603302,-29.33139 56.603333,-65.471687c0,-36.14032 -25.368866,-65.471706 -56.603333,-65.471706c-18.361298,0 -34.687469,10.132629 -45.027313,25.829468c-10.340576,-15.685181 -26.631439,-25.829468 -44.984772,-25.829468z"/>
   <path fill="#000000" fill-opacity="0.313725" fill-rule="evenodd" stroke-width="5" stroke-miterlimit="4" id="path3407" d="m298.846619,148.673019c-9.287994,0 -19.383636,10.327209 -18.979797,16.84967c0.403809,6.522461 16.556854,33.699402 20.191284,33.699402c3.63443,0 17.768311,-26.633362 17.364502,-34.24292c-0.403839,-7.609558 -12.518616,-16.849731 -18.575989,-16.306152z"/>
   <path fill="url(#linearGradient3211)" fill-rule="evenodd" stroke="#000000" stroke-width="5" stroke-miterlimit="4" id="path2391" d="m296.725311,138.064133c-9.287994,0 -19.383636,9.306213 -18.979828,15.183777c0.403839,5.877625 16.556885,30.367615 20.191284,30.367615c3.63443,0 17.768341,-24.000183 17.364502,-30.857361c-0.403809,-6.857239 -12.518585,-15.183838 -18.575958,-14.694031z"/>
   <path fill="#000000" fill-rule="nonzero" stroke="#000000" stroke-width="3.169292" stroke-linecap="round" stroke-miterlimit="4" id="path2411" d="m293.556152,107.664879a16.387114,16.387114 0 1 1 -32.774261,0a16.387114,16.387114 0 1 1 32.774261,0z"/>
   <path fill="#ffffff" fill-rule="evenodd" stroke="#000000" stroke-width="5" stroke-linejoin="round" stroke-miterlimit="4" id="path3283" d="m310.974457,48.782757c13.275909,-32.159731 35.665588,-36.513215 35.665588,-36.513215c0,0 -12.453308,16.775329 -1.173981,12.108764c17.465302,-7.225861 72.996735,15.418306 72.996735,15.418306c0,0 -73.574432,-17.126009 -107.488342,8.986145z"/>
   <path fill="#ffffff" fill-rule="evenodd" stroke="#000000" stroke-width="5" stroke-linejoin="round" stroke-miterlimit="4" id="path3285" d="m280.533325,45.782787c-13.275909,-32.15976 -35.665588,-36.513246 -35.665588,-36.513246c0,0 12.453308,16.775329 1.173981,12.108764c-17.465302,-7.22586 -72.99675,15.418306 -72.99675,15.418306c0,0 73.574448,-17.126009 107.488358,8.986176z"/>
   <path fill="#000000" fill-rule="nonzero" stroke="#000000" stroke-width="3.169292" stroke-linecap="round" stroke-miterlimit="4" id="path3301" d="m335.056152,107.664879a16.387114,16.387114 0 1 1 -32.774261,0a16.387114,16.387114 0 1 1 32.774261,0z"/>
   <path fill="#ffffff" fill-rule="nonzero" stroke-width="5" stroke-linejoin="round" stroke-miterlimit="4" id="path3341" d="m275.503906,101.925972a4.25,4.25 0 1 1 -8.5,0a4.25,4.25 0 1 1 8.5,0z"/>
   <path fill="#ffffff" fill-rule="nonzero" stroke-width="5" stroke-linejoin="round" stroke-miterlimit="4" id="path3343" d="m317.003906,101.925972a4.25,4.25 0 1 1 -8.5,0a4.25,4.25 0 1 1 8.5,0z"/>
   <path transform="rotate(52.6912 122.782 193.703)" fill="#784421" fill-rule="evenodd" stroke="#000000" stroke-width="5" stroke-miterlimit="4" id="path3169" d="m132.698959,112.042625c65.863083,17.300011 -19.389412,94.143013 51.773239,161.191994c13.153473,12.393005 -79.219597,2.091003 -111.876114,-66.584991c-31.757797,-66.785995 -1.550087,-107.539001 60.102875,-94.607002z"/>
   <path fill="#784421" fill-rule="evenodd" stroke="#000000" stroke-width="5" stroke-linecap="round" stroke-linejoin="round" stroke-miterlimit="4" id="path3193" d="m182.147369,118.497566c-13.388687,-4.609009 -27.221039,7.583862 -29.865189,14.179939c13.512283,-3.452271 19.719635,-4.425781 23.218384,-1.380707c-1.506744,3.371429 -17.408249,6.741913 -22.337326,28.871155c12.428772,-8.616638 22.303528,-18.575592 26.2724,-14.483154c-2.881577,5.033875 -6.199509,14.497437 -3.963562,23.880798c7.141479,-9.424438 14.438721,-19.378479 21.14151,-19.647827"/>
  </g>
 </g>
</svg>